<?xml version="1.0" encoding="utf-8"?>
<!-- Generator: Adobe Illustrator 28.2.0, SVG Export Plug-In . SVG Version: 6.00 Build 0)  -->
<svg version="1.1" id="Calque_1" xmlns="http://www.w3.org/2000/svg" xmlns:xlink="http://www.w3.org/1999/xlink" x="0px" y="0px"
	 viewBox="0 0 398.57 269.3" style="enable-background:new 0 0 398.57 269.3;" xml:space="preserve">
<style type="text/css">
	.st0{fill:url(#SVGID_1_);}
	.st1{fill:url(#SVGID_00000137111121581829651400000008263337362815392659_);}
	.st2{fill:url(#SVGID_00000181085689141179883820000005590879505036259766_);}
	.st3{fill:none;stroke:#FFFFFF;stroke-opacity:0.2;}
</style>
<linearGradient id="SVGID_1_" gradientUnits="userSpaceOnUse" x1="-279.5413" y1="367.2552" x2="1.9588" y2="-42.7448" gradientTransform="matrix(1 0 0 -1 262 356.8)">
	<stop  offset="0" style="stop-color:#290001"/>
	<stop  offset="1" style="stop-color:#860004"/>
</linearGradient>
<path class="st0" d="M1,147.4v-27.6L109,43v44.7l-64.8,43.5v4.8l64.8,43.5v44.7L1,147.4z"/>
<linearGradient id="SVGID_00000133502518179418624700000000347616532938551680_" gradientUnits="userSpaceOnUse" x1="-202.8278" y1="419.9256" x2="78.6724" y2="9.9256" gradientTransform="matrix(1 0 0 -1 262 356.8)">
	<stop  offset="0" style="stop-color:#290001"/>
	<stop  offset="1" style="stop-color:#860004"/>
</linearGradient>
<path style="fill:url(#SVGID_00000133502518179418624700000000347616532938551680_);" d="M136.91,268.3L218.51,1h34.5l-81.6,267.3
	H136.91z"/>
<linearGradient id="SVGID_00000155852977452307470570000007735428195073488013_" gradientUnits="userSpaceOnUse" x1="-119.2556" y1="477.305" x2="162.2445" y2="67.305" gradientTransform="matrix(1 0 0 -1 262 356.8)">
	<stop  offset="0" style="stop-color:#290001"/>
	<stop  offset="1" style="stop-color:#860004"/>
</linearGradient>
<path style="fill:url(#SVGID_00000155852977452307470570000007735428195073488013_);" d="M289.57,179.5l64.8-43.5v-4.8l-64.8-43.5
	V43l108,76.8v27.6l-108,76.8V179.5z"/>
<path class="st3" d="M0.5,147.4v0.26l0.21,0.15l108,76.8l0.79,0.56v-0.97v-44.7v-0.27l-0.22-0.15L44.7,135.73v-4.27l64.58-43.35
	l0.22-0.15V87.7V43v-0.97l-0.79,0.56l-108,76.8l-0.21,0.15v0.26V147.4z M136.43,268.15l-0.2,0.65h0.68h34.5h0.37l0.11-0.35
	l81.6-267.3l0.2-0.65h-0.67h-34.5h-0.37l-0.11,0.35L136.43,268.15z M289.3,179.09l-0.22,0.15v0.27v44.7v0.97l0.79-0.56l108-76.8
	l0.21-0.15v-0.26v-27.6v-0.26l-0.21-0.15l-108-76.8l-0.79-0.56V43v44.7v0.27l0.22,0.15l64.58,43.35v4.27L289.3,179.09z"/>
</svg>
