<?xml version="1.0" encoding="UTF-8"?>
<svg id="Calque_1" data-name="Calque 1" xmlns="http://www.w3.org/2000/svg" viewBox="0 0 16 16">
  <defs>
    <style>
      .cls-1 {
        fill: #1e1e1e;
      }

      .cls-1, .cls-2 {
        stroke-width: 0px;
      }

      .cls-2 {
        fill: #fff;
      }
    </style>
  </defs>
  <rect class="cls-1" width="16" height="16"/>
  <g>
    <path class="cls-2" d="M7.43,11.27c-.11.13-.25.26-.43.39s-.4.25-.65.36c-.25.11-.53.19-.85.26s-.65.1-1.01.1c-.48,0-.92-.09-1.31-.26s-.72-.42-1-.74-.49-.72-.64-1.19-.23-1-.23-1.6v-1.16c0-.6.08-1.13.24-1.6s.38-.87.66-1.2.61-.58.98-.75.79-.26,1.23-.26c.48,0,.9.06,1.26.18s.66.3.9.52c.25.23.44.51.58.83s.23.7.27,1.11h-1.6c-.05-.44-.19-.77-.4-.99s-.53-.33-.97-.33c-.21,0-.41.05-.59.16s-.34.26-.47.47-.24.46-.32.77-.12.66-.12,1.06v1.17c0,.8.14,1.41.4,1.83s.66.64,1.2.64c.13,0,.26,0,.38-.03s.24-.05.35-.08.21-.08.29-.12.15-.09.19-.14v-1.55s-1.41,0-1.41,0v-1.23h3.05v3.36Z"/>
    <path class="cls-2" d="M14.69,9.59c-.03.43-.12.82-.28,1.16s-.37.64-.64.88-.58.43-.95.56-.77.2-1.22.2c-.5,0-.95-.09-1.34-.28s-.72-.45-.98-.78-.47-.74-.61-1.2-.21-.98-.21-1.55v-1.15c0-.57.07-1.08.22-1.55s.36-.87.63-1.21.6-.6.99-.78.83-.28,1.31-.28.89.07,1.25.2.68.32.93.57.46.55.61.9.24.76.28,1.2h-1.64c-.02-.25-.05-.48-.11-.67s-.15-.35-.26-.48-.26-.22-.43-.29-.38-.1-.62-.1-.47.05-.66.16-.34.27-.47.48-.21.47-.27.78-.09.66-.09,1.05v1.16c0,.84.12,1.46.35,1.86s.61.6,1.12.6c.43,0,.77-.11,1.02-.34s.39-.6.42-1.11h1.65Z"/>
  </g>
</svg>