<?xml version="1.0" encoding="utf-8"?>
<!-- Generator: Adobe Illustrator 28.2.0, SVG Export Plug-In . SVG Version: 6.00 Build 0)  -->
<svg version="1.1" id="Calque_1" xmlns="http://www.w3.org/2000/svg" xmlns:xlink="http://www.w3.org/1999/xlink" x="0px" y="0px"
	 viewBox="0 0 26.01 26" style="enable-background:new 0 0 26.01 26;" xml:space="preserve">
<style type="text/css">
	.st0{fill:#FFFFFF;}
</style>
<g id="Layer_2">
	<path class="st0" d="M1,26c-0.27,0-0.52-0.1-0.71-0.29c-0.39-0.39-0.39-1.02-0.01-1.41c0,0,0,0,0.01-0.01l24-24
		c0.39-0.39,1.03-0.39,1.42,0s0.39,1.03,0,1.42l-24,24C1.52,25.9,1.27,26,1,26z"/>
	<path class="st0" d="M25,26c-0.27,0-0.52-0.1-0.71-0.29l-24-24c-0.39-0.39-0.39-1.03,0-1.42s1.03-0.39,1.42,0l24,24
		c0.39,0.39,0.39,1.02,0.01,1.41c0,0,0,0-0.01,0.01C25.52,25.9,25.27,26,25,26z"/>
</g>
</svg>
